# xmcd
#
# Track frame offsets:
#  150
#  13995
#  27047
#  42807
#  59100
#  74200
#  85437
#  104677
#  120007
#  133175
#  148855
#  164650
#  179007
#  193850
#  208297
#  220962
#  236662
#  249942
#  266287
#  282000
#  297187
#
# Disc length: 4160 seconds
#
# Revision: 5
# Processed by: cddbd v1.5.1PL0 Copyright (c) Steve Scherf et al.
# Submitted via: Collectorz.com_Music_Collector 6.9
#
DISCID=56103e15
DTITLE=Various Artist - Country Gold [CD1]
DYEAR=1992
DGENRE=Country
TTITLE0=Clint Black - A Better Man
TTITLE1=Don Williams - True Love
TTITLE2=Tanya Tucker - If it Don't Come Easy
TTITLE3=Keith Whitley - I'm no Stranger to The Rain
TTITLE4=Diamond Rio - Meet in The Middle
TTITLE5=Patty Loveless - Chains
TTITLE6=Vince Gill - When I Call Your Name
TTITLE7=The Judds - Have Mercy
TTITLE8=John Anderson - Straight Tequila Night
TTITLE9=Doug Stone - In a Different Light
TTITLE10=Restless Heart - A Tender Lie
TTITLE11=Kathy Mattea - Come From The Heart
TTITLE12=Earl thomas Conley - Brotherly Love
TTITLE13=Mike Reid - Walk of Faith
TTITLE14=Aaron Tippin - There Ain't Nothin' Wrong With The Radio
TTITLE15=George Strait - What's Going on in Your World
TTITLE16=Sammy Kershaw - Cadillac Style
TTITLE17=Exile - Nobody's Talking
TTITLE18=Reba McEntire - One Promise Too Late
TTITLE19=Rickey van Shelton - Somebody Lied
TTITLE20=McBride and the Ride - Sacred Ground
EXTD=
EXTT0=
EXTT1=
EXTT2=
EXTT3=
EXTT4=
EXTT5=
EXTT6=
EXTT7=
EXTT8=
EXTT9=
EXTT10=
EXTT11=
EXTT12=
EXTT13=
EXTT14=
EXTT15=
EXTT16=
EXTT17=
EXTT18=
EXTT19=
EXTT20=
PLAYORDER=
